<svg xmlns="http://www.w3.org/2000/svg" width="275.43" height="805.261" viewBox="0 0 275.43 805.261"><defs><style>.a{fill:#003a42;}.b{fill:none;stroke:#b5b5b5;stroke-miterlimit:10;}.c{fill:#ed544c;}</style></defs><g transform="translate(87.331 -104)"><g transform="translate(-26 103)"><path class="a" d="M49.055,9.2,39.76,0A21.634,21.634,0,0,1,9.2.155L0,9.451A34.728,34.728,0,0,0,49.055,9.2" transform="translate(67.352 663.914)"/><g transform="translate(-60.831 27.661)"><path class="b" d="M33.394,119.9A120.519,120.519,0,0,0,153.3,241.035h.614A120.518,120.518,0,0,0,274.429,120.518v.614A120.519,120.519,0,0,0,154.525,0M45.635,11.132a153.912,153.912,0,0,0,107.493,263.3" transform="translate(0 503.672)"/><line class="b" y1="624.748" transform="translate(153.063)"/></g><path class="c" d="M0,10.269l9.3,9.2a21.632,21.632,0,0,1,30.559-.155l9.2-9.3A34.727,34.727,0,0,0,0,10.269" transform="translate(67.352 1)"/></g></g></svg>