<svg xmlns="http://www.w3.org/2000/svg" width="361.091" height="1084.417" viewBox="0 0 361.091 1084.417"><defs><style>.a{fill:#ed544c;}.b,.c{fill:none;}.b{stroke:#b4b6b6;}.c{stroke:#b5b5b5;stroke-miterlimit:10;}.d{fill:#fff;}</style></defs><g transform="translate(0.5 0.5)"><path class="a" d="M48.82,10.22l-9.251,9.157a21.529,21.529,0,0,0-30.413-.155L0,9.971a34.561,34.561,0,0,1,48.82.249" transform="translate(181.54 1083.917) rotate(180)"/><path class="b" d="M0,0V529.784" transform="translate(158.717 519.371)"/><g transform="translate(360.091 519.372) rotate(180)"><path class="c" d="M43.818,157.33a158.137,158.137,0,0,0,157.33,158.941h.806A158.137,158.137,0,0,0,360.09,158.135v.806A158.138,158.138,0,0,0,202.759,0M59.879,14.607A201.321,201.321,0,0,0,0,157.108C-.566,268.641,89.391,359.519,200.926,360.086" transform="translate(0 159.285)"/><path class="d" d="M0,9.157,9.25,0A21.53,21.53,0,0,0,39.663.155L48.82,9.406A34.562,34.562,0,0,1,0,9.157" transform="translate(177.34 332.973)"/><line class="c" y1="317.344" transform="translate(201.374 0)"/></g></g></svg>