<svg xmlns="http://www.w3.org/2000/svg" width="361.091" height="1084.417" viewBox="0 0 361.091 1084.417"><defs><style>.a{fill:#ed544c;}.b,.c{fill:none;}.b{stroke:#b4b6b6;}.c{stroke:#b5b5b5;stroke-miterlimit:10;}</style></defs><g transform="translate(-876.706 407.407)"><path class="a" d="M48.82,9.157,39.569,0A21.529,21.529,0,0,1,9.157.155L0,9.406a34.561,34.561,0,0,0,48.82-.249" transform="translate(1058.746 -388.03) rotate(180)"/><path class="b" d="M0,529.784V0" transform="translate(1035.923 -372.646)"/><g transform="translate(1237.297 676.51) rotate(180)"><path class="c" d="M43.818,202.756A158.137,158.137,0,0,1,201.148,43.815h.806A158.137,158.137,0,0,1,360.09,201.951v-.806a158.138,158.138,0,0,1-157.33,158.941M59.879,345.479A201.321,201.321,0,0,1,0,202.979C-.566,91.445,89.391.568,200.926,0" transform="translate(0)"/><path class="a" d="M0,10.219l9.25,9.157a21.53,21.53,0,0,1,30.414-.155L48.82,9.97A34.562,34.562,0,0,0,0,10.219" transform="translate(177.341 167.022)"/><line class="c" y2="317.344" transform="translate(201.374 202.027)"/></g></g></svg>