<svg xmlns="http://www.w3.org/2000/svg" width="186.376" height="735.008" viewBox="0 0 186.376 735.008"><defs><style>.a{fill:#ed544c;}.b{fill:#003a42;}.c{fill:none;stroke:#fff;stroke-miterlimit:10;}</style></defs><g transform="translate(-893.706 74.407)"><path class="a" d="M42.573,7.985,34.506,0A18.774,18.774,0,0,1,7.985.135L0,8.2a30.138,30.138,0,0,0,42.573-.217" transform="translate(997.847 -57.51) rotate(180)"/><g transform="translate(1079.581 660.101) rotate(180)"><path class="b" d="M0,8.912,8.066,16.9a18.775,18.775,0,0,1,26.522-.135l7.985-8.067A30.139,30.139,0,0,0,0,8.912" transform="translate(81.734 69.342)"/><g transform="translate(0)"><path class="c" d="M22.558,104.379a81.409,81.409,0,0,1,80.994-81.823h.415a81.409,81.409,0,0,1,81.409,81.409v-.415a81.41,81.41,0,0,1-80.994,81.823m-73.555-7.52A103.966,103.966,0,0,1,103.437,0" transform="translate(0)"/><line class="c" y2="597.153" transform="translate(103.668 103.587)"/></g></g></g></svg>