<svg xmlns="http://www.w3.org/2000/svg" width="83" height="55.405" viewBox="0 0 83 55.405"><defs><style>.a{fill:#fff;}.b{fill:#ff6658;}</style></defs><g transform="translate(471.182 -166.96)"><g transform="translate(-435.436 176.363)"><path class="a" d="M-335.408,209.933a4.328,4.328,0,0,1-1.51-.278,3.942,3.942,0,0,1-1.344-.835l.995-1.2a3.765,3.765,0,0,0,.918.58,2.409,2.409,0,0,0,.989.225,1.343,1.343,0,0,0,.811-.2.647.647,0,0,0,.267-.545.594.594,0,0,0-.077-.308.737.737,0,0,0-.225-.231,2.135,2.135,0,0,0-.355-.19l-.456-.2-1.007-.427a2.986,2.986,0,0,1-.574-.308,2.53,2.53,0,0,1-.5-.444,2,2,0,0,1-.349-.592,2.1,2.1,0,0,1-.13-.764,2.042,2.042,0,0,1,.2-.894,2.217,2.217,0,0,1,.569-.734,2.706,2.706,0,0,1,.87-.492,3.308,3.308,0,0,1,1.107-.178,3.594,3.594,0,0,1,1.333.261,3.377,3.377,0,0,1,1.155.758l-.888,1.1a3.36,3.36,0,0,0-.758-.456,2.145,2.145,0,0,0-.841-.16,1.243,1.243,0,0,0-.716.183.59.59,0,0,0-.267.515.506.506,0,0,0,.089.3.872.872,0,0,0,.249.225,2.547,2.547,0,0,0,.373.189l.462.2.995.4a2.719,2.719,0,0,1,1.119.782,2.006,2.006,0,0,1,.409,1.315,2.2,2.2,0,0,1-.2.918,2.2,2.2,0,0,1-.569.758,2.834,2.834,0,0,1-.918.521A3.638,3.638,0,0,1-335.408,209.933Zm4.226-.142v-7.722h1.741v3.162h.047l2.3-3.162h1.919l-2.333,3.079,2.759,4.643h-1.907l-1.883-3.257-.9,1.184v2.073Z" transform="translate(338.262 -201.927)"/></g><g transform="translate(-454.672 166.96)"><path class="b" d="M-409.229,189.119a26.957,26.957,0,0,1,2.748-7.468q.6-1.1,1.309-2.15.735-1.091,1.558-2.1a27.206,27.206,0,0,1,35.768-5.519l.238.155.133.089,0,0h0a.269.269,0,0,0,.373-.073.269.269,0,0,0-.073-.373l-.144-.1a27.52,27.52,0,0,0-20.636-4.109,27.488,27.488,0,0,0-16.12,9.633,27.779,27.779,0,0,0-1.8,2.47q-.568.875-1.061,1.775a27.516,27.516,0,0,0-2.857,7.76Z" transform="translate(409.791 -166.96)"/><path class="b" d="M-352.33,317.11l-1.928-1.253h0l-1.93-1.25a.27.27,0,0,0-.372.079.272.272,0,0,0-.043.147.268.268,0,0,0,.123.226l1.7,1.1a27.068,27.068,0,0,1-16.327,11.391,27.165,27.165,0,0,1-16.923-1.4,27.222,27.222,0,0,1-4.178-2.224,27.007,27.007,0,0,1-9.828-11.328h-.611a27.52,27.52,0,0,0,9.763,11.526,27.757,27.757,0,0,0,4.677,2.535,27.523,27.523,0,0,0,10.747,2.177,27.913,27.913,0,0,0,6.34-.73,27.6,27.6,0,0,0,16.687-11.5l.106-.158,1.7,1.107a.269.269,0,0,0,.372-.079.269.269,0,0,0,.043-.146A.269.269,0,0,0-352.33,317.11Z" transform="translate(404.567 -273.433)"/></g><g transform="translate(-471.182 182.43)"><g transform="translate(6.623 6.633)"><path class="a" d="M-444.068,249.153h-2.488v8.232a5.47,5.47,0,0,0,5.446,5.477v-2.517a2.973,2.973,0,0,1-2.958-2.96V254.63h2.958v-2.483h-2.958Z" transform="translate(446.556 -249.153)"/></g><g transform="translate(15.195 9.355)"><path class="a" d="M-406.31,260.157h0a5.418,5.418,0,0,0-2.958-.884,5.47,5.47,0,0,0-5.412,5.511,5.471,5.471,0,0,0,5.412,5.511,5.419,5.419,0,0,0,2.958-.885v.51h2.488V259.545h-2.488Zm-2.958,7.62h0a3,3,0,0,1-2.959-2.993,2.981,2.981,0,0,1,2.959-2.993,2.959,2.959,0,0,1,2.958,2.993A2.98,2.98,0,0,1-409.268,267.777Z" transform="translate(414.68 -259.273)"/></g><g transform="translate(29.616 9.627)"><path class="a" d="M-358.567,260.284h-2.488v10.375h2.488v-4.9c0-1.327,1.58-2.994,3.564-2.994v-2.483a6.27,6.27,0,0,0-3.564,1.157Z" transform="translate(361.055 -260.284)"/></g><g transform="translate(38.659 9.355)"><path class="a" d="M-321.983,259.273h0a5.418,5.418,0,0,0-2.958.884v-.612h-2.488v14.73h2.488V269.41a5.419,5.419,0,0,0,2.958.885,5.5,5.5,0,0,0,5.446-5.511A5.5,5.5,0,0,0-321.983,259.273Zm0,8.5h0a2.98,2.98,0,0,1-2.958-2.993,2.959,2.959,0,0,1,2.958-2.993,2.98,2.98,0,0,1,2.958,2.993A3,3,0,0,1-321.983,267.777Z" transform="translate(327.429 -259.273)"/></g><g transform="translate(65.385 9.627)"><path class="a" d="M-222.6,260.284h0a5.537,5.537,0,0,0-2.961.612v-.612h-2.486v10.375h2.486v-4.9a2.983,2.983,0,0,1,2.961-2.994,3,3,0,0,1,2.957,2.994v4.9h2.486v-4.9A5.47,5.47,0,0,0-222.6,260.284Z" transform="translate(228.051 -260.284)"/></g><g transform="translate(51.703 9.355)"><path class="a" d="M-273.515,259.273h0a5.47,5.47,0,0,0-5.412,5.511,5.47,5.47,0,0,0,5.412,5.511,5.48,5.48,0,0,0,5.448-5.511A5.48,5.48,0,0,0-273.515,259.273Zm0,8.5h0a2.975,2.975,0,0,1-2.926-2.993,2.953,2.953,0,0,1,2.926-2.993,2.957,2.957,0,0,1,2.957,2.993A2.978,2.978,0,0,1-273.515,267.777Z" transform="translate(278.927 -259.273)"/></g><path class="b" d="M-471.182,231.12h2.454a4.12,4.12,0,0,1,4.1-4.15v-2.483A6.582,6.582,0,0,0-471.182,231.12Z" transform="translate(471.182 -224.487)"/><g transform="translate(76.41 20.002)"><path class="b" d="M-180.464,298.865h-2.486a4.144,4.144,0,0,1-4.1,4.15V305.5A6.609,6.609,0,0,0-180.464,298.865Z" transform="translate(187.054 -298.865)"/></g></g></g></svg>