<svg xmlns="http://www.w3.org/2000/svg" width="198.493" height="132.5" viewBox="0 0 198.493 132.5"><defs><style>.a{fill:#003a42;}.b{fill:#ff6658;}</style></defs><g transform="translate(471.182 -166.959)"><g transform="translate(-385.696 189.448)"><path class="a" d="M-331.436,221.074a10.349,10.349,0,0,1-3.611-.665,9.428,9.428,0,0,1-3.215-2l2.379-2.861a9.006,9.006,0,0,0,2.2,1.388,5.76,5.76,0,0,0,2.365.538,3.211,3.211,0,0,0,1.94-.481,1.548,1.548,0,0,0,.637-1.3,1.422,1.422,0,0,0-.185-.736,1.76,1.76,0,0,0-.538-.552,5.112,5.112,0,0,0-.85-.453l-1.09-.467-2.408-1.02a7.144,7.144,0,0,1-1.374-.736,6.049,6.049,0,0,1-1.189-1.062,4.77,4.77,0,0,1-.835-1.416,5.031,5.031,0,0,1-.312-1.827,4.883,4.883,0,0,1,.482-2.138,5.3,5.3,0,0,1,1.36-1.756,6.472,6.472,0,0,1,2.082-1.176,7.912,7.912,0,0,1,2.648-.425,8.6,8.6,0,0,1,3.187.623,8.074,8.074,0,0,1,2.762,1.813L-327.131,207a8.033,8.033,0,0,0-1.813-1.091,5.13,5.13,0,0,0-2.011-.382,2.973,2.973,0,0,0-1.713.439,1.412,1.412,0,0,0-.637,1.232,1.211,1.211,0,0,0,.212.722,2.083,2.083,0,0,0,.595.538,6.088,6.088,0,0,0,.892.453q.51.213,1.1.468l2.379.963a6.5,6.5,0,0,1,2.677,1.87,4.8,4.8,0,0,1,.978,3.144,5.274,5.274,0,0,1-.468,2.2,5.268,5.268,0,0,1-1.36,1.812,6.778,6.778,0,0,1-2.2,1.246A8.7,8.7,0,0,1-331.436,221.074Zm10.108-.34V202.267h4.164v7.563h.113l5.495-7.563h4.588l-5.58,7.364,6.6,11.1h-4.56l-4.5-7.789-2.153,2.832v4.957Z" transform="translate(338.262 -201.927)"/></g><g transform="translate(-431.699 166.96)"><path class="b" d="M-408.446,219.954a64.471,64.471,0,0,1,6.571-17.859q1.438-2.623,3.131-5.141,1.757-2.609,3.727-5.013a65.063,65.063,0,0,1,85.539-13.2q.288.186.569.372l.319.214.009.006h0a.643.643,0,0,0,.892-.174.643.643,0,0,0-.174-.893l-.345-.231a65.813,65.813,0,0,0-49.35-9.827,65.736,65.736,0,0,0-38.551,23.038,66.436,66.436,0,0,0-4.312,5.906q-1.358,2.092-2.538,4.244a65.806,65.806,0,0,0-6.831,18.558Z" transform="translate(409.791 -166.96)"/><path class="b" d="M-282.316,323.386l-4.611-3,0,0-4.616-2.989a.646.646,0,0,0-.89.19.649.649,0,0,0-.1.35.641.641,0,0,0,.293.54l4.076,2.639a64.734,64.734,0,0,1-39.047,27.241,64.965,64.965,0,0,1-40.471-3.349,65.094,65.094,0,0,1-9.992-5.319,64.588,64.588,0,0,1-23.5-27.09h-1.461A65.814,65.814,0,0,0-379.3,340.165a66.373,66.373,0,0,0,11.184,6.062,65.821,65.821,0,0,0,25.7,5.206,66.76,66.76,0,0,0,15.163-1.747A66,66,0,0,0-287.344,322.2c.084-.125.169-.251.253-.378l4.074,2.648a.643.643,0,0,0,.89-.189.643.643,0,0,0,.1-.35A.643.643,0,0,0-282.316,323.386Z" transform="translate(407.241 -218.933)"/></g><g transform="translate(-471.182 203.958)"><g transform="translate(15.838 15.864)"><path class="a" d="M-440.607,249.153h-5.949V268.84a13.08,13.08,0,0,0,13.023,13.1v-6.02a7.11,7.11,0,0,1-7.074-7.078v-6.59h7.074v-5.939h-7.074Z" transform="translate(446.556 -249.153)"/></g><g transform="translate(36.339 22.372)"><path class="a" d="M-394.662,261.388h0a12.957,12.957,0,0,0-7.074-2.115,13.082,13.082,0,0,0-12.944,13.178,13.083,13.083,0,0,0,12.944,13.18,12.958,12.958,0,0,0,7.074-2.116v1.221h5.95V259.923h-5.95Zm-7.074,18.223h0a7.181,7.181,0,0,1-7.076-7.159,7.128,7.128,0,0,1,7.076-7.159,7.076,7.076,0,0,1,7.074,7.159A7.128,7.128,0,0,1-401.736,279.61Z" transform="translate(414.68 -259.273)"/></g><g transform="translate(70.827 23.022)"><path class="a" d="M-355.106,260.284h-5.949V285.1h5.949V273.383c0-3.174,3.779-7.16,8.522-7.16v-5.939a15,15,0,0,0-8.522,2.766Z" transform="translate(361.055 -260.284)"/></g><g transform="translate(92.453 22.372)"><path class="a" d="M-314.405,259.273h0a12.957,12.957,0,0,0-7.074,2.115v-1.464h-5.949v35.226h5.949V283.515a12.958,12.958,0,0,0,7.074,2.116,13.152,13.152,0,0,0,13.024-13.18A13.151,13.151,0,0,0-314.405,259.273Zm0,20.337h0a7.127,7.127,0,0,1-7.074-7.159,7.076,7.076,0,0,1,7.074-7.159,7.127,7.127,0,0,1,7.074,7.159A7.18,7.18,0,0,1-314.405,279.61Z" transform="translate(327.429 -259.273)"/></g><g transform="translate(156.366 23.022)"><path class="a" d="M-215.023,260.284h0a13.243,13.243,0,0,0-7.082,1.464v-1.464h-5.946V285.1h5.946V273.383a7.133,7.133,0,0,1,7.082-7.16,7.18,7.18,0,0,1,7.071,7.16V285.1h5.946V273.383A13.081,13.081,0,0,0-215.023,260.284Z" transform="translate(228.051 -260.284)"/></g><g transform="translate(123.646 22.372)"><path class="a" d="M-265.985,259.273h0a13.081,13.081,0,0,0-12.942,13.178,13.082,13.082,0,0,0,12.942,13.18,13.106,13.106,0,0,0,13.028-13.18A13.105,13.105,0,0,0-265.985,259.273Zm0,20.337h0a7.115,7.115,0,0,1-7-7.159,7.063,7.063,0,0,1,7-7.159,7.071,7.071,0,0,1,7.071,7.159A7.122,7.122,0,0,1-265.985,279.61Z" transform="translate(278.927 -259.273)"/></g><path class="b" d="M-471.182,240.351h5.869a9.854,9.854,0,0,1,9.808-9.925v-5.939A15.74,15.74,0,0,0-471.182,240.351Z" transform="translate(471.182 -224.487)"/><g transform="translate(182.733 47.835)"><path class="b" d="M-171.294,298.865h-5.946a9.91,9.91,0,0,1-9.814,9.925v5.939A15.806,15.806,0,0,0-171.294,298.865Z" transform="translate(187.054 -298.865)"/></g></g></g></svg>