<svg xmlns="http://www.w3.org/2000/svg" xmlns:xlink="http://www.w3.org/1999/xlink" width="178.516" height="140.665" viewBox="0 0 178.516 140.665"><defs><style>.a{fill:none;}.b{clip-path:url(#a);}.c{fill:#912424;}</style><clipPath id="a"><rect class="a" width="178.516" height="140.665"/></clipPath></defs><g transform="translate(0 0)"><g class="b" transform="translate(0 0)"><path d="M8.84,69.319A2.793,2.793,0,0,1,7.8,69.126a2.414,2.414,0,0,1-.855-.56,2.64,2.64,0,0,1-.577-.906,3.246,3.246,0,0,1-.212-1.2,4.846,4.846,0,0,1,.324-1.784,4.994,4.994,0,0,1,.891-1.482,4.2,4.2,0,0,1,1.309-1.007,3.567,3.567,0,0,1,1.6-.38,3.785,3.785,0,0,1,1.109.148,2.7,2.7,0,0,1,.785.369l.282-.344h.405l-.545,2.556H11.9v-.2a4.57,4.57,0,0,0-.064-.793,1.905,1.905,0,0,0-.252-.679,1.341,1.341,0,0,0-.5-.469,1.649,1.649,0,0,0-.806-.176,2.147,2.147,0,0,0-1.154.333,3.194,3.194,0,0,0-.923.882,4.387,4.387,0,0,0-.617,1.321,5.659,5.659,0,0,0-.231,1.6A2.737,2.737,0,0,0,7.883,68.1a1.71,1.71,0,0,0,1.417.67,2.324,2.324,0,0,0,1.366-.439,3.3,3.3,0,0,0,1.018-1.175l.365.191a4.074,4.074,0,0,1-1.419,1.531,3.579,3.579,0,0,1-1.79.443" transform="translate(6.901 69.276)"/><path d="M14.187,64.85a3.721,3.721,0,0,1-.2,1.192,3.137,3.137,0,0,1-.587,1.046,2.978,2.978,0,0,1-.935.749,2.79,2.79,0,0,1-1.273.278,1.808,1.808,0,0,1-1.359-.541,2,2,0,0,1-.522-1.455,3.491,3.491,0,0,1,.817-2.276,2.888,2.888,0,0,1,.937-.71,2.736,2.736,0,0,1,1.209-.269,1.822,1.822,0,0,1,1.408.549,2.035,2.035,0,0,1,.507,1.438m-1.031-.193A1.866,1.866,0,0,0,12.9,63.58a.843.843,0,0,0-.736-.358,1.363,1.363,0,0,0-.791.257,2.024,2.024,0,0,0-.638.84,3.809,3.809,0,0,0-.3.98,5.723,5.723,0,0,0-.1.993,1.974,1.974,0,0,0,.25,1.094.847.847,0,0,0,.757.371,1.225,1.225,0,0,0,.8-.282,2.124,2.124,0,0,0,.566-.719,3.859,3.859,0,0,0,.333-.973,5.478,5.478,0,0,0,.117-1.124" transform="translate(10.434 70.46)"/><path d="M20.453,67.393l-.074.322a6.8,6.8,0,0,1-.747.261,1.947,1.947,0,0,1-.475.074.806.806,0,0,1-.609-.212.71.71,0,0,1-.2-.518,1.478,1.478,0,0,1,.021-.244,2.418,2.418,0,0,1,.066-.316l.5-1.885c.038-.146.066-.278.089-.4a1.712,1.712,0,0,0,.034-.282.9.9,0,0,0-.146-.537.539.539,0,0,0-.462-.2,1.488,1.488,0,0,0-.662.159,2.78,2.78,0,0,0-.732.594l-.884,3.748h-.94l.8-3.379c.019-.072.034-.153.051-.235a1.368,1.368,0,0,0,.021-.182.764.764,0,0,0-.163-.517.61.61,0,0,0-.479-.187,1.674,1.674,0,0,0-.632.144,2.5,2.5,0,0,0-.8.645l-.861,3.711h-.946l.759-3.277c.025-.119.053-.244.078-.38a1.855,1.855,0,0,0,.036-.344.555.555,0,0,0-.1-.386.542.542,0,0,0-.375-.093,1.193,1.193,0,0,0-.286.042c-.119.028-.208.051-.271.068l.074-.325a5.326,5.326,0,0,1,.7-.265,1.9,1.9,0,0,1,.522-.087.679.679,0,0,1,.577.221.988.988,0,0,1,.18.6h.03a6.778,6.778,0,0,1,.98-.672,1.942,1.942,0,0,1,.912-.2,1.033,1.033,0,0,1,.73.259.984.984,0,0,1,.316.655H17.1a6.486,6.486,0,0,1,.959-.683,1.989,1.989,0,0,1,.978-.231.968.968,0,0,1,.744.28,1.046,1.046,0,0,1,.259.736c0,.061-.011.168-.03.324a3.356,3.356,0,0,1-.087.458l-.426,1.625c-.03.108-.057.231-.085.371a1.849,1.849,0,0,0-.042.327.507.507,0,0,0,.123.392.638.638,0,0,0,.409.1,2.138,2.138,0,0,0,.278-.025,1.39,1.39,0,0,0,.278-.062" transform="translate(13.511 70.46)"/><path d="M22.291,64.794a3.569,3.569,0,0,1-.867,2.335,2.93,2.93,0,0,1-.95.727,2.463,2.463,0,0,1-1.052.238,2,2,0,0,1-.713-.106,2.143,2.143,0,0,1-.494-.263l-.295,1.323c-.021.085-.036.163-.049.238a1.11,1.11,0,0,0-.019.178.267.267,0,0,0,.1.216.609.609,0,0,0,.227.117,1.468,1.468,0,0,0,.282.059c.1.015.2.025.282.032l-.07.318H15.886l.072-.318c.108-.006.206-.015.3-.025a1.706,1.706,0,0,0,.267-.051.468.468,0,0,0,.252-.17.805.805,0,0,0,.134-.305l1.054-4.651c.028-.127.053-.257.074-.386a1.757,1.757,0,0,0,.036-.335.6.6,0,0,0-.087-.382.549.549,0,0,0-.382-.1,1.3,1.3,0,0,0-.284.042l-.267.07.078-.324a6.06,6.06,0,0,1,.691-.265,1.874,1.874,0,0,1,.526-.093.724.724,0,0,1,.534.18.854.854,0,0,1,.227.5h.042a3.4,3.4,0,0,1,.732-.526,1.664,1.664,0,0,1,.783-.208,1.455,1.455,0,0,1,1.194.524,2.158,2.158,0,0,1,.426,1.408m-1.576,2.087a3.366,3.366,0,0,0,.4-.942,4.48,4.48,0,0,0,.138-1.122,2.908,2.908,0,0,0-.049-.539,1.262,1.262,0,0,0-.153-.445.792.792,0,0,0-.3-.308,1.033,1.033,0,0,0-.507-.108,1.148,1.148,0,0,0-.513.142,3.067,3.067,0,0,0-.683.53L18.4,66.957a.885.885,0,0,0,.31.539.951.951,0,0,0,.664.25,1.316,1.316,0,0,0,.749-.233,2,2,0,0,0,.594-.632" transform="translate(17.806 70.459)"/><path d="M22.495,67.3h-.034c-.076.059-.165.136-.265.229a2.437,2.437,0,0,1-.361.265,2.808,2.808,0,0,1-.428.221,1.33,1.33,0,0,1-.507.093,1.381,1.381,0,0,1-1.147-.526,2.25,2.25,0,0,1-.416-1.436,3.344,3.344,0,0,1,.231-1.217,3.658,3.658,0,0,1,.643-1.063,3.057,3.057,0,0,1,.925-.725,2.356,2.356,0,0,1,1.1-.276,2.415,2.415,0,0,1,.683.1,2,2,0,0,1,.515.216l.925-.235.062.074-.77,3.262c-.028.106-.053.233-.083.382a1.867,1.867,0,0,0-.042.331.5.5,0,0,0,.121.39.646.646,0,0,0,.411.1,1.9,1.9,0,0,0,.271-.03,1.515,1.515,0,0,0,.271-.068l-.074.324c-.3.121-.53.208-.679.263a1.606,1.606,0,0,1-.541.081.777.777,0,0,1-.577-.212.8.8,0,0,1-.233-.541m.727-3.2a1.283,1.283,0,0,0-.036-.318.641.641,0,0,0-.146-.284.679.679,0,0,0-.278-.2,1.116,1.116,0,0,0-.443-.076,1.238,1.238,0,0,0-.719.244,2.454,2.454,0,0,0-.626.651,3.411,3.411,0,0,0-.431.931,3.806,3.806,0,0,0-.165,1.107,3.514,3.514,0,0,0,.036.547,1.444,1.444,0,0,0,.134.435.709.709,0,0,0,.278.3.912.912,0,0,0,.46.106,1.292,1.292,0,0,0,.592-.159,2.856,2.856,0,0,0,.7-.558Z" transform="translate(21.674 70.459)"/><path d="M27.654,67.377l-.074.324c-.305.121-.543.208-.71.265a1.642,1.642,0,0,1-.511.083.806.806,0,0,1-.609-.21.714.714,0,0,1-.2-.517,1.484,1.484,0,0,1,.021-.246,2.419,2.419,0,0,1,.066-.316l.5-1.885c.038-.146.066-.278.089-.394a1.691,1.691,0,0,0,.032-.284.827.827,0,0,0-.159-.534.581.581,0,0,0-.477-.2,1.49,1.49,0,0,0-.687.2,2.549,2.549,0,0,0-.715.585l-.863,3.712H22.4l.759-3.277c.017-.081.04-.2.072-.35a1.8,1.8,0,0,0,.049-.371.556.556,0,0,0-.1-.382.579.579,0,0,0-.386-.093,1.341,1.341,0,0,0-.284.036c-.117.025-.206.047-.269.064l.074-.322a5.644,5.644,0,0,1,.7-.265,2.064,2.064,0,0,1,.522-.085.688.688,0,0,1,.575.218.986.986,0,0,1,.185.6h.03a6.5,6.5,0,0,1,.957-.66,1.919,1.919,0,0,1,.914-.214,1.007,1.007,0,0,1,.757.28,1.02,1.02,0,0,1,.271.736,3.211,3.211,0,0,1-.03.324,3.448,3.448,0,0,1-.087.46L26.7,66.285c-.032.108-.059.231-.089.371a1.724,1.724,0,0,0-.045.327.488.488,0,0,0,.127.392.646.646,0,0,0,.414.1,1.757,1.757,0,0,0,.276-.034,1.673,1.673,0,0,0,.276-.068" transform="translate(24.939 70.459)"/><path d="M28.61,67.2h-.03a5.208,5.208,0,0,1-.884.611,2,2,0,0,1-.957.223,1.04,1.04,0,0,1-.766-.28.983.983,0,0,1-.284-.736,2.221,2.221,0,0,1,.021-.288,4.833,4.833,0,0,1,.1-.494l.392-1.576c.036-.153.066-.284.085-.4a1.755,1.755,0,0,0,.032-.327.55.55,0,0,0-.093-.375.562.562,0,0,0-.382-.093,1.261,1.261,0,0,0-.282.042c-.115.028-.2.051-.267.068l.076-.324a5.9,5.9,0,0,1,.694-.269,1.768,1.768,0,0,1,.481-.093.857.857,0,0,1,.6.182.714.714,0,0,1,.193.547,2.158,2.158,0,0,1-.019.246,2.343,2.343,0,0,1-.062.314L26.8,66.023c-.034.142-.064.274-.089.4a1.858,1.858,0,0,0-.034.28.808.808,0,0,0,.165.537.591.591,0,0,0,.484.2,1.544,1.544,0,0,0,.719-.18,2.546,2.546,0,0,0,.662-.5l.833-3.779.874-.059.059.076L29.6,66.941a6.857,6.857,0,0,1-.492,1.487,3.352,3.352,0,0,1-.7.995,2.6,2.6,0,0,1-.906.575,3.187,3.187,0,0,1-1.1.178,3.025,3.025,0,0,1-.681-.062,1.135,1.135,0,0,1-.4-.168.52.52,0,0,1-.2-.227.7.7,0,0,1-.049-.252.608.608,0,0,1,.129-.384.461.461,0,0,1,.38-.165.486.486,0,0,1,.32.106,1.029,1.029,0,0,1,.212.231,2.021,2.021,0,0,1,.165.31c.051.112.091.2.123.271h.121a1.5,1.5,0,0,0,.609-.142,1.721,1.721,0,0,0,.587-.439,3.171,3.171,0,0,0,.517-.834A5.531,5.531,0,0,0,28.61,67.2" transform="translate(28.11 70.49)"/><path d="M35.184,62.171a1.145,1.145,0,0,1,.433.4,1.058,1.058,0,0,1,.157.583,1.706,1.706,0,0,1-.182.808,1.856,1.856,0,0,1-.473.585,2.822,2.822,0,0,1-.677.4,3.891,3.891,0,0,1-.761.235v.045a3.038,3.038,0,0,1,.607.14,2.176,2.176,0,0,1,.568.276,1.426,1.426,0,0,1,.437.456,1.286,1.286,0,0,1,.17.664,1.912,1.912,0,0,1-.265,1.01,2.3,2.3,0,0,1-.672.71,3.209,3.209,0,0,1-.931.433,3.865,3.865,0,0,1-1.027.138h-3.5l.081-.333c.081-.006.2-.021.365-.042a1.565,1.565,0,0,0,.348-.078.616.616,0,0,0,.271-.2.8.8,0,0,0,.134-.3l1.2-5.2c.006-.034.013-.066.017-.1a.512.512,0,0,0,.008-.1.371.371,0,0,0-.045-.185.356.356,0,0,0-.148-.134,1.229,1.229,0,0,0-.312-.119,2.115,2.115,0,0,0-.3-.047l.081-.333h3.16a3.371,3.371,0,0,1,.672.062,2.078,2.078,0,0,1,.587.221m-1.4,5.792a2.195,2.195,0,0,0,.327-.653,2.317,2.317,0,0,0,.112-.7,1.053,1.053,0,0,0-.365-.85,1.55,1.55,0,0,0-1.024-.308c-.21,0-.392,0-.545.008l-.344.011-.573,2.473c-.011.049-.017.093-.023.134a1.119,1.119,0,0,0-.008.117.4.4,0,0,0,.269.38,1.752,1.752,0,0,0,.685.117,1.8,1.8,0,0,0,1.489-.73m.327-3.463a1.723,1.723,0,0,0,.341-.59,2.245,2.245,0,0,0,.1-.7.983.983,0,0,0-.1-.454.783.783,0,0,0-.263-.3,1.164,1.164,0,0,0-.371-.148,2.116,2.116,0,0,0-.424-.042c-.112,0-.235,0-.373.006s-.252.011-.348.013l-.638,2.789h.632a2.172,2.172,0,0,0,.859-.157,1.535,1.535,0,0,0,.577-.414" transform="translate(32.578 69.368)"/><path d="M35.834,67.224H35.8q-.232.188-.445.344a3.154,3.154,0,0,1-.418.263A2.247,2.247,0,0,1,34.5,68a1.983,1.983,0,0,1-.513.053,1,1,0,0,1-.755-.28,1.021,1.021,0,0,1-.267-.734,2.171,2.171,0,0,1,.021-.288,4.747,4.747,0,0,1,.1-.5l.392-1.6c.032-.151.062-.28.083-.4a1.606,1.606,0,0,0,.032-.327.545.545,0,0,0-.093-.378.552.552,0,0,0-.38-.093,1.279,1.279,0,0,0-.282.042c-.115.03-.2.051-.267.07l.076-.327a6.052,6.052,0,0,1,.694-.269,1.735,1.735,0,0,1,.484-.091.8.8,0,0,1,.592.189.723.723,0,0,1,.191.539,1.873,1.873,0,0,1-.021.248,2.306,2.306,0,0,1-.059.312l-.445,1.868c-.034.142-.061.274-.083.4a1.615,1.615,0,0,0-.034.28.881.881,0,0,0,.146.537.54.54,0,0,0,.464.2,1.5,1.5,0,0,0,.664-.17,2.617,2.617,0,0,0,.683-.513l.88-3.8.88-.061.059.076-.749,3.253c-.034.138-.064.278-.091.416a1.767,1.767,0,0,0-.04.3.494.494,0,0,0,.123.39.639.639,0,0,0,.411.1,1.844,1.844,0,0,0,.271-.03,1.736,1.736,0,0,0,.274-.066l-.076.322c-.28.115-.511.2-.7.257a1.773,1.773,0,0,1-.517.087.743.743,0,0,1-.607-.238.827.827,0,0,1-.2-.556" transform="translate(36.502 70.491)"/><path d="M37.914,68.764l-.074.324a7,7,0,0,1-.744.259,1.916,1.916,0,0,1-.473.074.8.8,0,0,1-.607-.21.717.717,0,0,1-.2-.52,1.4,1.4,0,0,1,.021-.242c.011-.085.034-.191.064-.318l.534-2.151c.028-.117.053-.244.078-.378a1.919,1.919,0,0,0,.038-.344.552.552,0,0,0-.093-.378.562.562,0,0,0-.382-.093,1.643,1.643,0,0,0-.295.034c-.123.025-.216.045-.28.062l.076-.324a5.141,5.141,0,0,1,.706-.261,2,2,0,0,1,.494-.087.789.789,0,0,1,.6.2.733.733,0,0,1,.189.532,2.253,2.253,0,0,1-.021.246,2.639,2.639,0,0,1-.059.314l-.539,2.148c-.034.131-.062.263-.087.388a1.66,1.66,0,0,0-.038.312.5.5,0,0,0,.129.394.65.65,0,0,0,.414.1,2.013,2.013,0,0,0,.276-.023,1.373,1.373,0,0,0,.274-.062m.358-6.46a.743.743,0,0,1-.187.5.6.6,0,0,1-.91.011.682.682,0,0,1-.185-.469.7.7,0,0,1,.185-.484.583.583,0,0,1,.445-.208.619.619,0,0,1,.471.2.64.64,0,0,1,.18.452" transform="translate(39.79 69.108)"/><path d="M39.652,61.657l-1.412,6.08c-.032.129-.059.257-.087.384a1.588,1.588,0,0,0-.042.314.486.486,0,0,0,.131.394.65.65,0,0,0,.414.106,2.574,2.574,0,0,0,.3-.025,1.79,1.79,0,0,0,.3-.059l-.074.322c-.3.121-.537.208-.7.257a1.853,1.853,0,0,1-.551.076.843.843,0,0,1-.617-.21.709.709,0,0,1-.208-.517,1.414,1.414,0,0,1,.023-.244q.022-.124.064-.318l1.23-5.323c.023-.1.038-.176.047-.216a.753.753,0,0,0,.013-.151.553.553,0,0,0-.059-.282.405.405,0,0,0-.172-.148.889.889,0,0,0-.269-.059c-.108-.011-.218-.023-.329-.036l.07-.308,1.879-.112Z" transform="translate(41.589 69.023)"/><path d="M41.732,68.707H41.7c-.074.064-.172.146-.288.25a2.581,2.581,0,0,1-.367.269,2.688,2.688,0,0,1-.448.233,1.391,1.391,0,0,1-.5.081,1.375,1.375,0,0,1-1.147-.528,2.261,2.261,0,0,1-.418-1.438,3.463,3.463,0,0,1,.225-1.23,3.5,3.5,0,0,1,.615-1.05,2.949,2.949,0,0,1,.912-.721A2.377,2.377,0,0,1,41.4,64.3a2.658,2.658,0,0,1,.691.091,2.128,2.128,0,0,1,.566.223l.394-1.718c.021-.091.034-.161.045-.212a1.016,1.016,0,0,0,.013-.168.442.442,0,0,0-.076-.278.416.416,0,0,0-.2-.142,1.19,1.19,0,0,0-.333-.059c-.142-.011-.269-.021-.384-.036l.07-.308,2.047-.11.049.074-1.4,6.057c-.025.11-.055.238-.083.38a1.724,1.724,0,0,0-.042.327.5.5,0,0,0,.119.392.631.631,0,0,0,.411.1,1.9,1.9,0,0,0,.274-.03,1.482,1.482,0,0,0,.269-.068l-.074.324a4.982,4.982,0,0,1-.7.267,1.958,1.958,0,0,1-.515.076.84.84,0,0,1-.579-.191.739.739,0,0,1-.216-.587m.719-3.222a.818.818,0,0,0-.074-.286,1.054,1.054,0,0,0-.168-.25.919.919,0,0,0-.3-.21,1.057,1.057,0,0,0-.437-.083,1.249,1.249,0,0,0-.736.244,2.3,2.3,0,0,0-.611.647,3.375,3.375,0,0,0-.4.937,4.086,4.086,0,0,0-.151,1.1,3.808,3.808,0,0,0,.034.545,1.392,1.392,0,0,0,.138.441.742.742,0,0,0,.271.295.886.886,0,0,0,.469.108,1.319,1.319,0,0,0,.6-.168,2.853,2.853,0,0,0,.725-.581Z" transform="translate(43.186 69.023)"/><path d="M45.759,63.915a1.349,1.349,0,0,1-.335.92,2.251,2.251,0,0,1-.978.611,7.6,7.6,0,0,1-.95.28c-.318.07-.672.129-1.06.176a2.108,2.108,0,0,0,.3,1.219.986.986,0,0,0,.865.422,1.605,1.605,0,0,0,.893-.252,3.091,3.091,0,0,0,.759-.753l.288.212a3.16,3.16,0,0,1-1.012.986,2.38,2.38,0,0,1-1.256.369,1.787,1.787,0,0,1-1.368-.5,1.992,1.992,0,0,1-.473-1.421,3.744,3.744,0,0,1,.2-1.215,3.548,3.548,0,0,1,.585-1.058,2.872,2.872,0,0,1,.916-.759,2.527,2.527,0,0,1,1.2-.286,1.64,1.64,0,0,1,1.075.295.943.943,0,0,1,.352.757m-.929-.125a.729.729,0,0,0-.055-.31.407.407,0,0,0-.142-.17.458.458,0,0,0-.193-.074,1.283,1.283,0,0,0-.206-.017,1.437,1.437,0,0,0-1.12.666,3.431,3.431,0,0,0-.647,1.658c.235-.034.5-.081.8-.144A2.929,2.929,0,0,0,44,65.156a1.492,1.492,0,0,0,.624-.558,1.526,1.526,0,0,0,.206-.808" transform="translate(46.437 70.46)"/><path d="M48.272,63.686a1.317,1.317,0,0,1-.042.31.8.8,0,0,1-.115.282.782.782,0,0,1-.2.208.684.684,0,0,1-.719-.062.421.421,0,0,1-.136-.3.98.98,0,0,1,.074-.352c.051-.129.1-.259.157-.386a.908.908,0,0,0-.2.034,1.534,1.534,0,0,0-.335.129,2.6,2.6,0,0,0-.447.286,4.152,4.152,0,0,0-.53.511l-.814,3.62h-.942l.738-3.277c.017-.081.04-.2.072-.365a2.048,2.048,0,0,0,.047-.358.539.539,0,0,0-.1-.38.553.553,0,0,0-.382-.1,1.367,1.367,0,0,0-.284.038q-.172.038-.267.064l.076-.324a5.763,5.763,0,0,1,.7-.263,1.959,1.959,0,0,1,.52-.085.685.685,0,0,1,.577.221,1.047,1.047,0,0,1,.172.66h.032a10.19,10.19,0,0,1,.91-.73A1.16,1.16,0,0,1,47.8,62.9a.622.622,0,0,1,.257.136.656.656,0,0,1,.165.246,1.2,1.2,0,0,1,.053.4" transform="translate(49.152 70.46)"/><path d="M47.7,68.115a2.633,2.633,0,0,1-1.245-.265.787.787,0,0,1-.5-.694.586.586,0,0,1,.146-.38.447.447,0,0,1,.358-.176.523.523,0,0,1,.327.093.715.715,0,0,1,.2.221,1.658,1.658,0,0,1,.134.312c.038.121.072.221.1.3a.774.774,0,0,0,.21.157.8.8,0,0,0,.388.074,1.127,1.127,0,0,0,.823-.274.986.986,0,0,0,.282-.738.664.664,0,0,0-.263-.549,2.635,2.635,0,0,0-.783-.378,3.312,3.312,0,0,1-.439-.185,1.653,1.653,0,0,1-.405-.265,1.283,1.283,0,0,1-.293-.386,1.159,1.159,0,0,1-.112-.526,1.4,1.4,0,0,1,.581-1.12,2.165,2.165,0,0,1,1.421-.475c.131,0,.271.006.424.021a2.218,2.218,0,0,1,.5.11,1.088,1.088,0,0,1,.405.24.553.553,0,0,1,.168.414.573.573,0,0,1-.14.375.453.453,0,0,1-.367.17.552.552,0,0,1-.308-.081.667.667,0,0,1-.2-.218,1.521,1.521,0,0,1-.132-.293c-.034-.1-.072-.208-.11-.308a.931.931,0,0,0-.172-.055,1.043,1.043,0,0,0-.2-.017.987.987,0,0,0-.749.267.878.878,0,0,0-.257.63.636.636,0,0,0,.231.534,2.881,2.881,0,0,0,.759.371,2.639,2.639,0,0,1,1,.568,1.081,1.081,0,0,1,.31.789,1.531,1.531,0,0,1-.592,1.251,2.272,2.272,0,0,1-1.489.484" transform="translate(51.509 70.459)"/><path d="M6.157,46.316H9.818v9.775l8.634-9.775h4.331L14.85,55.3l8.165,11.414H18.744l-6.354-8.81-2.573,2.84v5.97H6.157Z" transform="translate(6.901 51.914)"/><path d="M21.438,48.828c2.488,0,4.187,1.113,4.713,2.458V49.15h3.512v10.3c0,1.228.295,1.726,1.084,1.726a6.538,6.538,0,0,0,.732-.057V63.96a5.13,5.13,0,0,1-1.726.235,4.052,4.052,0,0,1-2.051-.469,2.818,2.818,0,0,1-1.2-1.786c-.85,1.258-2.4,2.312-5.067,2.312a7.426,7.426,0,0,1-7.372-7.726,7.419,7.419,0,0,1,7.372-7.7m.471,12.205a4.507,4.507,0,0,0,0-9.014,4.509,4.509,0,0,0,0,9.014" transform="translate(15.766 54.729)"/><path d="M23.215,49.135H26.7v2.108a4.147,4.147,0,0,1,3.951-2.4,4.153,4.153,0,0,1,4.155,2.577,4.861,4.861,0,0,1,4.742-2.577c3.219,0,5.033,2.282,5.033,5.913v4.653c0,1.084.176,1.552,1,1.552a2.27,2.27,0,0,0,.5-.059v2.956a5.464,5.464,0,0,1-1.521.174c-1.845,0-3.453-.789-3.453-3.862V55.251c0-1.989-.94-3.277-2.577-3.277s-2.84,1.4-2.84,3.425v8.488H32.2V55.251c0-1.989-.937-3.277-2.634-3.277-1.639,0-2.867,1.4-2.867,3.425v8.488H23.215Z" transform="translate(26.021 54.744)"/><path d="M41.935,48.828c2.488,0,4.187,1.113,4.713,2.458V49.15H50.16v10.3c0,1.228.293,1.726,1.084,1.726a6.578,6.578,0,0,0,.732-.057V63.96a5.135,5.135,0,0,1-1.728.235,4.049,4.049,0,0,1-2.049-.469A2.821,2.821,0,0,1,47,61.941c-.846,1.258-2.4,2.312-5.062,2.312a7.429,7.429,0,0,1-7.376-7.726,7.422,7.422,0,0,1,7.376-7.7M42.4,61.034a4.507,4.507,0,1,0,0-9.014,4.509,4.509,0,0,0,0,9.014" transform="translate(38.735 54.729)"/><path d="M43.709,49.135h3.485v2.2a4.566,4.566,0,0,1,4.388-2.488,7.754,7.754,0,0,1,1.054.087v3.4a7.128,7.128,0,0,0-1.463-.144,3.694,3.694,0,0,0-3.979,3.949v7.758H43.709Z" transform="translate(48.991 54.744)"/><path d="M56.326,48.773a7.818,7.818,0,1,1-8.049,7.815,7.866,7.866,0,0,1,8.049-7.815m0,12.439a4.625,4.625,0,1,0-4.566-4.623,4.528,4.528,0,0,0,4.566,4.623" transform="translate(54.111 54.667)"/><path d="M64.717,48.773a7.818,7.818,0,1,1-8.049,7.815,7.866,7.866,0,0,1,8.049-7.815m0,12.439a4.625,4.625,0,1,0-4.566-4.623,4.528,4.528,0,0,0,4.566,4.623" transform="translate(63.516 54.667)"/><path d="M65.361,69.551V49.15h3.512v2.136c.5-1.374,2.225-2.458,4.713-2.458a7.7,7.7,0,0,1,0,15.4c-2.488,0-4.214-1.082-4.713-2.458v7.786ZM68.61,56.527a4.419,4.419,0,0,0,4.507,4.507,4.509,4.509,0,0,0,0-9.014,4.418,4.418,0,0,0-4.507,4.507" transform="translate(73.26 54.729)"/><path d="M73.641,48.284a2.093,2.093,0,1,1,2.108,2.078,2.094,2.094,0,0,1-2.108-2.078m.352,3.8h3.512V62.45c0,1.084.235,1.552,1.024,1.552a3.33,3.33,0,0,0,.615-.059V66.9a4.889,4.889,0,0,1-1.756.235c-1.845,0-3.4-.791-3.4-3.748Z" transform="translate(82.541 51.79)"/><path d="M77.147,49.135h3.485v2.108a4.688,4.688,0,0,1,4.418-2.4c3.482,0,5.5,2.282,5.5,5.913v4.653c0,1.084.176,1.552,1,1.552a2.287,2.287,0,0,0,.5-.059v2.956a5.838,5.838,0,0,1-1.521.174c-1.845,0-3.455-.789-3.455-3.862V55.251a2.954,2.954,0,0,0-3.1-3.277A3.251,3.251,0,0,0,80.632,55.4v8.488H77.147Z" transform="translate(86.47 54.744)"/><path class="c" d="M74.9,38.211A14.407,14.407,0,0,0,55.1,24.882v-.134c0-10.5-5.251-16.35-14.038-22.3L37.45,0l-3.6,2.445c-8.789,5.953-14.038,11.8-14.038,22.3v.134A14.395,14.395,0,0,0,6.492,50.251c-.006.072-.006.142-.006.212,0,.73.025,1.453.076,2.163a30.964,30.964,0,0,0,61.778,0c.051-.71.076-1.434.076-2.163,0-.07,0-.14-.006-.212A14.386,14.386,0,0,0,74.9,38.211M42.122,21.117,37.45,29.206l-4.67-8.089ZM58.955,52.627a14.306,14.306,0,0,1-4.322,3.835,14.488,14.488,0,0,1-3.2,1.364,14.158,14.158,0,0,1,.416,3.444,14.4,14.4,0,1,1-28.795,0,14.158,14.158,0,0,1,.418-3.444,14.5,14.5,0,0,1-3.2-1.364,14.411,14.411,0,0,1,8.539-26.822A14.448,14.448,0,0,1,37.45,33.6,14.405,14.405,0,0,1,58.955,52.627" transform="translate(0 0)"/></g></g></svg>